<svg width="24" height="24" viewBox="0 0 24 24" fill="none" xmlns="http://www.w3.org/2000/svg">
<path d="M16.8179 20C17.4337 20 18.0006 19.6648 18.2973 19.1253V19.1253C18.6023 18.5708 18.569 17.891 18.1153 17.4499C17.1346 16.4966 15.0643 15 11.7327 15C8.40585 15 6.43743 16.4923 5.51927 17.4458C5.08884 17.8927 5.07296 18.5573 5.372 19.1011V19.1011" stroke="#131214" stroke-linecap="round" stroke-linejoin="round"/>
<path d="M11.8413 11.1111C13.7612 11.1111 15.3176 9.51924 15.3176 7.55556C15.3176 5.59188 13.7612 4 11.8413 4C9.9214 4 8.365 5.59188 8.365 7.55556C8.365 9.51924 9.9214 11.1111 11.8413 11.1111Z" stroke="#131214" stroke-linecap="round" stroke-linejoin="round"/>
</svg>
