<svg width="25" height="24" viewBox="0 0 25 24" fill="none" xmlns="http://www.w3.org/2000/svg">
<path d="M12.5 10.8002V13.2002M12.5 13.2002V15.6002M12.5 13.2002H10.1M12.5 13.2002H14.9M4.5 16.5002C4.5 18.1571 5.84314 19.5002 7.5 19.5002H17.5C19.1569 19.5002 20.5 18.1571 20.5 16.5002V10.0002C20.5 8.34339 19.1576 7.00024 17.5007 7.00024C16.0642 7.00024 14.4544 7.00024 13.4588 7.00024C12.8513 7.00024 12.2791 6.72407 11.8995 6.24963L11.4007 5.62616C10.8314 4.91451 9.96948 4.50024 9.05813 4.50024H6.50001C5.39544 4.50024 4.50001 5.39567 4.50001 6.50024L4.5 16.5002Z" stroke="#131214" stroke-linecap="round" stroke-linejoin="round"/>
</svg>
