<svg width="10" height="11" viewBox="0 0 10 11" fill="none" xmlns="http://www.w3.org/2000/svg">
<path d="M0.387457 10.0792C0.603139 10.2888 0.960555 10.2888 1.17007 10.0792L5.11399 6.13533L9.05788 10.0792C9.26745 10.2888 9.63098 10.2949 9.84055 10.0792C10.05 9.86354 10.05 9.51231 9.84055 9.30281L5.89661 5.35272L9.84055 1.4088C10.05 1.19928 10.0562 0.841863 9.84055 0.632343C9.62486 0.41666 9.26745 0.41666 9.05788 0.632343L5.11399 4.57626L1.17007 0.632343C0.960555 0.41666 0.596977 0.410498 0.387457 0.632343C0.177936 0.848026 0.177936 1.19928 0.387457 1.4088L4.33137 5.35272L0.387457 9.30281C0.177936 9.51231 0.171774 9.86973 0.387457 10.0792Z" fill="#6E6E6E" fill-opacity="0.85"/>
</svg>
