<svg width="335" height="48" viewBox="0 0 335 48" fill="none" xmlns="http://www.w3.org/2000/svg">
<rect width="335" height="48" rx="10" fill="#FEE500"/>
<g clip-path="url(#clip0_773_3098)">
<path fill-rule="evenodd" clip-rule="evenodd" d="M99.5 15.5996C94.5292 15.5996 90.5 18.7126 90.5 22.5519C90.5 24.9396 92.0584 27.0446 94.4315 28.2966L93.433 31.9441C93.3448 32.2664 93.7134 32.5233 93.9965 32.3365L98.3733 29.4478C98.7427 29.4835 99.1181 29.5043 99.5 29.5043C104.47 29.5043 108.5 26.3914 108.5 22.5519C108.5 18.7126 104.47 15.5996 99.5 15.5996Z" fill="black"/>
</g>
<path d="M124.312 18.1562C124.312 22.4219 123.141 26.0781 117.938 28.6719L116.984 27.3594C119.43 26.1484 120.883 24.7422 121.703 23.0625L117.312 23.4844L117.094 21.9844L122.234 21.6562C122.414 21 122.523 20.3047 122.578 19.5625H117.828V18.1562H124.312ZM128.031 16.7656V22.2969H130.125V23.7188H128.031V30.8594H126.297V16.7656H128.031ZM138.061 18.1562C138.061 22.4219 136.889 26.0781 131.686 28.6719L130.733 27.3594C133.178 26.1484 134.631 24.7422 135.451 23.0625L131.061 23.4844L130.842 21.9844L135.983 21.6562C136.162 21 136.272 20.3047 136.326 19.5625H131.576V18.1562H138.061ZM141.779 16.7656V22.2969H143.873V23.7188H141.779V30.8594H140.045V16.7656H141.779ZM150.887 17.5625C153.918 17.5625 156.153 19.0781 156.153 21.375C156.153 23.4922 154.332 24.9062 151.746 25.1562V27.75H157.371V29.1719H144.465V27.75H150.028V25.1562C147.457 24.9062 145.637 23.4922 145.653 21.375C145.637 19.0781 147.871 17.5625 150.887 17.5625ZM150.887 18.9688C148.824 18.9531 147.34 19.8906 147.356 21.375C147.34 22.9062 148.824 23.8125 150.887 23.8125C152.981 23.8125 154.449 22.9062 154.449 21.375C154.449 19.8906 152.981 18.9531 150.887 18.9688ZM171.119 27.8125V29.25H158.213V27.8125H163.776V25.5156H159.744V20.8906H167.869V19.1406H159.713V17.7344H169.588V22.2656H161.479V24.0938H169.916V25.5156H165.494V27.8125H171.119ZM188.584 27.8125V29.25H175.678V27.8125H181.241V25.5156H177.209V20.8906H185.334V19.1406H177.178V17.7344H187.053V22.2656H178.944V24.0938H187.381V25.5156H182.959V27.8125H188.584ZM200.661 18.1406V19.7344C200.661 21.625 200.661 23.5781 200.145 26.5469L198.379 26.3906C198.926 23.6094 198.926 21.5625 198.926 19.7344V19.5469H190.786V18.1406H200.661ZM202.301 27.5312V28.9531H189.426V27.5312H202.301ZM214.94 16.7812V26.9844H213.19V16.7812H214.94ZM215.331 29.2031V30.6094H205.596V25.9531H207.346V29.2031H215.331ZM207.237 17.7031C209.378 17.7031 211.034 19.1875 211.034 21.2344C211.034 23.3281 209.378 24.7812 207.237 24.7812C205.081 24.7812 203.424 23.3281 203.424 21.2344C203.424 19.1875 205.081 17.7031 207.237 17.7031ZM207.237 19.2188C206.034 19.2188 205.112 20.0156 205.128 21.2344C205.112 22.4844 206.034 23.2656 207.237 23.2656C208.409 23.2656 209.331 22.4844 209.331 21.2344C209.331 20.0156 208.409 19.2188 207.237 19.2188ZM227.985 16.7656V22.3906H230.157V23.8281H227.985V30.8906H226.266V16.7656H227.985ZM225.173 18.9375V20.3281H216.844V18.9375H220.188V16.9688H221.923V18.9375H225.173ZM221.063 21.25C223.094 21.25 224.61 22.625 224.61 24.5781C224.61 26.5312 223.094 27.8906 221.063 27.8906C219.001 27.8906 217.485 26.5312 217.501 24.5781C217.485 22.625 219.001 21.25 221.063 21.25ZM221.063 22.6719C219.954 22.6719 219.157 23.4219 219.157 24.5781C219.157 25.7344 219.954 26.4688 221.063 26.4531C222.141 26.4688 222.938 25.7344 222.954 24.5781C222.938 23.4219 222.141 22.6719 221.063 22.6719ZM242.467 16.7656V30.8906H240.717V16.7656H242.467ZM238.249 18.2656C238.249 22.4688 236.624 26.0469 231.671 28.3906L230.764 27C234.46 25.2422 236.178 22.8516 236.483 19.6406H231.483V18.2656H238.249Z" fill="#171717"/>
<defs>
<clipPath id="clip0_773_3098">
<rect width="18" height="18" fill="white" transform="translate(90.5 15)"/>
</clipPath>
</defs>
</svg>
