<svg width="24" height="24" viewBox="0 0 24 24" fill="none" xmlns="http://www.w3.org/2000/svg">
<path fill-rule="evenodd" clip-rule="evenodd" d="M13.5603 19.3877C15.577 17.6744 18.7292 14.4197 18.7292 10.8148C18.7292 9.00741 18.0112 7.27404 16.7332 5.99601C15.4552 4.71799 13.7218 4 11.9144 4C10.107 4 8.37365 4.71799 7.09562 5.99601C5.8176 7.27404 5.09961 9.00741 5.09961 10.8148C5.09961 14.4197 8.25185 17.6743 10.2686 19.3877C11.2295 20.2041 12.5993 20.2041 13.5603 19.3877ZM11.9 12.3C12.7284 12.3 13.4 11.6285 13.4 10.8C13.4 9.97162 12.7284 9.30005 11.9 9.30005C11.0716 9.30005 10.4 9.97162 10.4 10.8C10.4 11.6285 11.0716 12.3 11.9 12.3Z" fill="#198155"/>
</svg>
