<svg width="34" height="34" viewBox="0 0 34 34" fill="none" xmlns="http://www.w3.org/2000/svg">
<path d="M17.1144 23.806C17.0376 23.4325 16.999 23.0507 17 22.6667V22.3334C17.0767 20.9439 17.6632 19.6314 18.6472 18.6473C19.6313 17.6633 20.9438 17.0768 22.3333 17.0001H22.6667C23.0516 16.9991 23.4342 17.0379 23.8086 17.115M17.1144 23.806C17.2136 24.2885 17.3764 24.7574 17.6 25.2001C18.0704 26.1412 18.7935 26.9328 19.6884 27.4863C20.5832 28.0397 21.6145 28.333 22.6667 28.3334C23.3909 28.3353 24.1071 28.1963 24.7758 27.9259C25.0564 27.8124 25.361 27.7607 25.6594 27.8112L26.4977 27.9005C27.3056 27.9866 27.9868 27.3052 27.9006 26.4974L27.8111 25.6595C27.7606 25.3611 27.8123 25.0565 27.9258 24.7759C28.1963 24.1072 28.3352 23.391 28.3333 22.6667C28.3329 21.6146 28.0396 20.5833 27.4862 19.6885C26.9328 18.7936 26.1411 18.0705 25.2 17.6001C24.7582 17.3769 24.2902 17.2142 23.8086 17.115M17.1144 23.806C16.3855 23.9891 15.6336 24.0831 14.875 24.0834C13.6981 24.0865 12.5343 23.8607 11.4477 23.4212C10.9917 23.2368 10.4967 23.1527 10.0118 23.2349L8.01697 23.4473C7.0296 23.5525 6.19702 22.7197 6.3024 21.7324L6.51523 19.7383C6.59737 19.2534 6.51327 18.7584 6.32887 18.3024C5.88941 17.2158 5.66363 16.052 5.66669 14.8751C5.66736 13.1653 6.14402 11.4895 7.0433 10.0354C7.94258 8.58121 9.22896 7.40614 10.7583 6.64178C12.0346 5.99712 13.4451 5.66305 14.875 5.66678H15.4167C17.6747 5.79135 19.8074 6.74443 21.4065 8.34353C23.0056 9.94263 23.9587 12.0754 24.0833 14.3334V14.8751C24.0853 15.6329 23.9924 16.3852 23.8086 17.115" stroke="black" stroke-width="1.5" stroke-linecap="round" stroke-linejoin="round"/>
</svg>
