<svg width="24" height="24" viewBox="0 0 24 24" fill="none" xmlns="http://www.w3.org/2000/svg">
<path d="M5 18.2222C5 18.2222 5.1873 19.1459 5.5207 19.4793C5.8541 19.8127 6.30628 20 6.77778 20H7.66667C8.13816 20 8.59035 19.8127 8.92375 19.4793C9.25714 19.1459 9.44444 18.6937 9.44444 18.2222V15.5556C9.44444 15.0841 9.25714 14.6319 8.92375 14.2985C8.59035 13.9651 8.13816 13.7778 7.66667 13.7778H4.14411L5 18.2222ZM5 18.2222C5 18.2222 4 14.1217 4 12C4 9.87827 4.84285 7.84344 6.34315 6.34315C7.84344 4.84285 9.87827 4 12 4C14.1217 4 16.1566 4.84285 17.6569 6.34315C19.1571 7.84344 20 9 20 12C20 15 19 18.2222 19 18.2222M19 18.2222C19 18.2222 18.8127 19.1459 18.4793 19.4793C18.1459 19.8127 17.6937 20 17.2222 20H16.3333C15.8618 20 15.4097 19.8127 15.0763 19.4793C14.7429 19.1459 14.5556 18.6937 14.5556 18.2222V15.5556C14.5556 15.0841 14.7429 14.6319 15.0763 14.2985C15.4097 13.9651 15.8618 13.7778 16.3333 13.7778H19.8983L19 18.2222Z" stroke="#585858" stroke-width="1.5" stroke-linecap="round" stroke-linejoin="round"/>
</svg>
