<svg width="20" height="20" viewBox="0 0 20 20" fill="none" xmlns="http://www.w3.org/2000/svg">
<path d="M7.25792 13.0943C4.3803 10.4608 3.62417 7.7333 3.46784 6.02662C3.37252 4.986 4.19115 4.18803 5.22361 4.02679L6.41311 3.84102C7.58417 3.65813 8.68884 4.43822 8.90822 5.603L9.09814 6.61139C9.18445 7.06966 8.93068 7.52409 8.49523 7.69099C7.99762 7.88172 7.75383 8.43879 8.00797 8.9072C8.31212 9.46777 8.77958 10.1943 9.39581 10.7582C10.012 11.3222 10.777 11.7236 11.3623 11.977C11.8514 12.1887 12.3847 11.8966 12.5307 11.3841C12.6584 10.9356 13.0886 10.6427 13.5527 10.6881L14.574 10.7881C15.7536 10.9037 16.6283 11.9351 16.5497 13.1177L16.4698 14.319C16.4005 15.3616 15.678 16.2476 14.633 16.2447C12.9192 16.2398 10.1355 15.7278 7.25792 13.0943Z" stroke="#131214" stroke-width="1.5"/>
</svg>
