<svg width="25" height="24" viewBox="0 0 25 24" fill="none" xmlns="http://www.w3.org/2000/svg">
<path d="M11.275 19.943C11.275 20.3573 11.6108 20.693 12.025 20.693C12.4392 20.693 12.775 20.3573 12.775 19.943H11.275ZM12.775 12C12.775 11.5858 12.4392 11.25 12.025 11.25C11.6108 11.25 11.275 11.5858 11.275 12H12.775ZM5.70443 7.58417C5.34361 7.38076 4.8862 7.50836 4.68279 7.86919C4.47937 8.23001 4.60697 8.68742 4.9678 8.89084L5.70443 7.58417ZM12.025 12.0084L11.6567 12.6617C11.8794 12.7873 12.1507 12.7907 12.3765 12.6709L12.025 12.0084ZM19.4835 8.90002C19.8493 8.70588 19.9886 8.25188 19.7944 7.88598C19.6003 7.52008 19.1463 7.38085 18.7804 7.57499L19.4835 8.90002ZM13.2431 19.6843L13.6074 20.34L13.2431 19.6843ZM10.8068 19.6843L11.1711 19.0287L10.8068 19.6843ZM4.5 14.7046L5.25 14.7046V14.7046L4.5 14.7046ZM5.79018 16.8973L5.42595 17.5529H5.42595L5.79018 16.8973ZM18.2598 16.8973L17.8956 16.2417L18.2598 16.8973ZM10.8068 4.31566L10.4426 3.66004L10.8068 4.31566ZM13.2431 4.31565L12.8789 4.97127L13.2431 4.31565ZM18.2598 7.10269L18.624 6.44707L18.2598 7.10269ZM4.50001 9.29536L5.25001 9.29536V9.29536H4.50001ZM5.79019 7.10269L5.42595 6.44707L5.79019 7.10269ZM12.775 19.943V12H11.275V19.943H12.775ZM4.9678 8.89084L11.6567 12.6617L12.3933 11.355L5.70443 7.58417L4.9678 8.89084ZM12.3765 12.6709L19.4835 8.90002L18.7804 7.57499L11.6735 11.3459L12.3765 12.6709ZM6.15442 7.7583L11.1711 4.97127L10.4426 3.66004L5.42595 6.44707L6.15442 7.7583ZM12.8789 4.97127L17.8956 7.7583L18.624 6.44707L13.6074 3.66004L12.8789 4.97127ZM17.8956 16.2417L12.8789 19.0287L13.6074 20.34L18.624 17.5529L17.8956 16.2417ZM11.1711 19.0287L6.15441 16.2417L5.42595 17.5529L10.4426 20.34L11.1711 19.0287ZM12.8789 19.0287C12.3479 19.3238 11.7021 19.3238 11.1711 19.0287L10.4426 20.34C11.4267 20.8867 12.6233 20.8867 13.6074 20.34L12.8789 19.0287ZM3.75 14.7046C3.75 15.888 4.39154 16.9783 5.42595 17.5529L6.15441 16.2417C5.5962 15.9316 5.25 15.3432 5.25 14.7046L3.75 14.7046ZM18.8 14.7046C18.8 15.3432 18.4538 15.9316 17.8956 16.2417L18.624 17.5529C19.6584 16.9783 20.3 15.888 20.3 14.7046H18.8ZM11.1711 4.97127C11.7021 4.67624 12.3479 4.67624 12.8789 4.97127L13.6074 3.66004C12.6233 3.11332 11.4267 3.11332 10.4426 3.66004L11.1711 4.97127ZM20.3 9.29536C20.3 8.11204 19.6584 7.02174 18.624 6.44707L17.8956 7.7583C18.4538 8.06842 18.8 8.65679 18.8 9.29536H20.3ZM5.25001 9.29536C5.25001 8.65679 5.59621 8.06842 6.15442 7.7583L5.42595 6.44707C4.39155 7.02174 3.75001 8.11204 3.75001 9.29536H5.25001ZM18.8 9.29536V14.7046H20.3V9.29536H18.8ZM5.25 14.7046L5.25001 9.29536L3.75001 9.29536L3.75 14.7046L5.25 14.7046Z" fill="#585858"/>
</svg>
