<svg width="20" height="20" viewBox="0 0 20 20" fill="none" xmlns="http://www.w3.org/2000/svg">
<path d="M15.6077 9.01226C15.6077 12.0163 12.9808 14.7285 11.3002 16.1563C10.4994 16.8367 9.35794 16.8367 8.55714 16.1563C6.87655 14.7285 4.24968 12.0163 4.24968 9.01226C4.24968 7.50609 4.848 6.06162 5.91302 4.9966C6.97804 3.93157 8.42252 3.33325 9.92869 3.33325C11.4349 3.33325 12.8793 3.93157 13.9444 4.9966C15.0094 6.06162 15.6077 7.50609 15.6077 9.01226Z" stroke="#131214" stroke-width="1.5" stroke-linecap="round" stroke-linejoin="round"/>
<path d="M9.92869 10.9053C10.9742 10.9053 11.8217 10.0577 11.8217 9.01226C11.8217 7.96678 10.9742 7.11926 9.92869 7.11926C8.88321 7.11926 8.03569 7.96678 8.03569 9.01226C8.03569 10.0577 8.88321 10.9053 9.92869 10.9053Z" stroke="#131214" stroke-width="1.5" stroke-linecap="round" stroke-linejoin="round"/>
</svg>
