<svg width="16" height="18" viewBox="0 0 16 18" fill="none" xmlns="http://www.w3.org/2000/svg">
<path d="M12.8179 17C13.4336 17 14.0005 16.6648 14.2972 16.1253V16.1253C14.6022 15.5708 14.5689 14.891 14.1152 14.4499C13.1345 13.4966 11.0643 12 7.73259 12C4.40576 12 2.43734 13.4923 1.51918 14.4458C1.08874 14.8927 1.07287 15.5573 1.37191 16.1011V16.1011" stroke="#131214" stroke-width="1.5" stroke-linecap="round" stroke-linejoin="round"/>
<path d="M7.84123 8.11111C9.76115 8.11111 11.3175 6.51924 11.3175 4.55556C11.3175 2.59188 9.76115 1 7.84123 1C5.92131 1 4.3649 2.59188 4.3649 4.55556C4.3649 6.51924 5.92131 8.11111 7.84123 8.11111Z" stroke="#131214" stroke-width="1.5" stroke-linecap="round" stroke-linejoin="round"/>
</svg>
